# xmcd
#
# Track frame offsets:
#	150
#	21430
#	41795
#	62222
#	78760
#	90567
#	108770
#	122427
#	134400
#	153490
#	167802
#	186292
#	202470
#	223575
#	238740
#	259992
#
# Disc length: 3657 seconds
#
# Revision: 0
# Processed by: cddbd v1.5.2PL0 Copyright (c) Steve Scherf et al.
# Submitted via: EasyCDDAExtractor 10.0.2.1
#
DISCID=e90e4710
DTITLE=Chris Lange - BACK DOOR TO YOUR SOUL
DYEAR=1998
DGENRE=Blues
TTITLE0=Spicy And Soulful
TTITLE1=Salty
TTITLE2=Heavy Load
TTITLE3=Go Slow
TTITLE4=Mouse Trap Hop
TTITLE5=Tell It
TTITLE6=Back Door To Your Soul
TTITLE7=Patchwork
TTITLE8=Some Blues In My Stewpot
TTITLE9=Trying To See
TTITLE10=Mixed Pickles
TTITLE11=Infrared
TTITLE12=Next Week
TTITLE13=Bodyfunk
TTITLE14=One Hour Too Late
TTITLE15=Homegrown
EXTD=
EXTT0=
EXTT1=
EXTT2=
EXTT3=
EXTT4=
EXTT5=
EXTT6=
EXTT7=
EXTT8=
EXTT9=
EXTT10=
EXTT11=
EXTT12=
EXTT13=
EXTT14=
EXTT15=
PLAYORDER=
